<svg width="385" height="921" viewBox="0 0 385 921" fill="none" xmlns="http://www.w3.org/2000/svg">
<mask id="mask0_50_436" style="mask-type:luminance" maskUnits="userSpaceOnUse" x="0" y="0" width="385" height="921">
<path d="M385 0H0V920.412H385V0Z" fill="white"/>
</mask>
<g mask="url(#mask0_50_436)">
<path d="M180.963 96.1706C163.746 97.2922 143.965 97.8156 130.433 110.676C125.338 118.714 135.318 125.491 141.408 128.058C167.562 138.627 197.061 137.82 223.95 130.732C231.389 127.992 242.86 125.033 243.423 115.011C240.735 105.103 229.159 102.376 221.015 99.7362C207.937 96.4243 194.364 95.8851 180.963 96.1706Z" fill="#D7E3F4" fill-opacity="0.99216"/>
<path d="M128.903 124.66C127.311 186.695 128.177 248.928 127.798 311.045C128.001 441.226 127.426 571.413 129.056 701.597C132.36 730.712 156.927 754.865 184.731 755.688C204.385 756.019 223.841 745.788 234.787 728.212C242.401 718.824 243.372 706.296 243.569 694.425C245.591 594.597 244.228 494.725 244.636 394.877V125.646C241.302 121.097 235.437 129.145 230.918 129.536C206.74 137.975 179.996 138.039 155.116 133.328C146.169 131.64 138.089 126.713 129.703 123.863L128.903 124.674L128.903 124.66Z" fill="#D7E3F4" fill-opacity="0.99216"/>
<path d="M171.5 763C174.648 766.086 157.536 754.486 184.028 754.574C202.754 754.609 221.292 753.525 231.721 751.66C231.721 738.365 194 754.487 216.5 763C218.465 748.988 241.106 733.869 241.106 717.906C221.456 719.123 201.775 719.936 185.415 719.929C167.979 719.923 143.684 719.089 130.351 717.753C127.243 727.869 139.337 738.654 140.633 748.837L171.5 763Z" fill="#D725F4" fill-opacity="0.99216"/>
<path d="M161.943 134.32C178.489 139.35 195.749 137.548 213.161 134.32V760.548H161.943V134.32Z" fill="url(#paint0_linear_50_436)"/>
<path d="M132.918 125.782C146.563 131.921 158.977 135.411 172.926 136.494V723.922L172.064 754.67L132.919 736.333L132.918 125.782Z" fill="url(#paint1_linear_50_436)"/>
<path d="M178.615 96.8943C161.398 98.0157 141.617 98.5391 128.085 111.399C122.99 119.438 132.97 126.215 139.06 128.781C165.214 139.351 194.713 138.543 221.602 131.455C229.042 128.716 240.512 125.757 241.075 115.735C238.387 105.827 226.812 103.1 218.668 100.46C205.589 97.1479 192.017 96.6086 178.615 96.8943Z" fill="url(#paint2_radial_50_436)"/>
<path d="M186.663 94C153.935 94 127.341 103.392 126.106 115.142C126.077 115.425 126 115.704 126 115.99C126 116.369 126.054 116.746 126.106 117.121V705.615C126.106 741.278 153.12 770 186.663 770C220.204 770 247.219 741.28 247.219 705.615V117.573C247.321 117.051 247.379 116.521 247.379 115.99C247.379 103.846 220.18 94 186.663 94ZM186.237 96.6568C217.431 96.6568 242.753 105.214 242.753 115.762C242.753 126.312 217.432 134.867 186.237 134.867C155.044 134.867 129.722 126.311 129.722 115.762C129.722 105.213 155.042 96.6568 186.237 96.6568ZM129.403 123.282C137.687 131.848 160.187 137.979 186.663 137.979C213.081 137.979 235.58 131.875 243.922 123.338V693.926C243.922 727.643 218.375 754.749 186.663 754.749C154.95 754.749 129.403 727.643 129.403 693.926V123.284V123.282Z" fill="#B3B3B3" fill-opacity="0.99216"/>
<g filter="url(#filter0_f_50_436)">
<path d="M186.118 768.831C221.57 759.843 252.115 738.75 244.204 704.451C239.251 736.705 218.106 762.347 186.394 762.347C154.681 762.347 128.859 727.926 128.859 694.209C119.851 731.907 161.223 768.078 186.118 768.831Z" fill="white" fill-opacity="0.99216"/>
</g>
</g>
<defs>
<filter id="filter0_f_50_436" x="123.818" y="690.429" width="125.426" height="82.1821" filterUnits="userSpaceOnUse" color-interpolation-filters="sRGB">
<feFlood flood-opacity="0" result="BackgroundImageFix"/>
<feBlend mode="normal" in="SourceGraphic" in2="BackgroundImageFix" result="shape"/>
<feGaussianBlur stdDeviation="1.89011" result="effect1_foregroundBlur_50_436"/>
</filter>
<linearGradient id="paint0_linear_50_436" x1="161.964" y1="447.48" x2="213.173" y2="447.48" gradientUnits="userSpaceOnUse">
<stop stop-color="white" stop-opacity="0"/>
<stop offset="0.5" stop-color="white" stop-opacity="0.76978"/>
<stop offset="1" stop-color="white" stop-opacity="0"/>
</linearGradient>
<linearGradient id="paint1_linear_50_436" x1="132.944" y1="434.678" x2="172.946" y2="434.678" gradientUnits="userSpaceOnUse">
<stop stop-color="white" stop-opacity="0"/>
<stop offset="0.5" stop-color="white" stop-opacity="0.76978"/>
<stop offset="1" stop-color="white" stop-opacity="0"/>
</linearGradient>
<radialGradient id="paint2_radial_50_436" cx="0" cy="0" r="1" gradientUnits="userSpaceOnUse" gradientTransform="translate(141.624 116.797) rotate(-1.13883) scale(83.6432 34.7424)">
<stop stop-color="white"/>
<stop offset="1" stop-color="white" stop-opacity="0"/>
</radialGradient>
</defs>
</svg>
