<svg width="127" height="679" viewBox="0 0 127 679" fill="none" xmlns="http://www.w3.org/2000/svg">
<path d="M57.9631 2.17064C40.7459 3.29221 20.9648 3.81563 7.43265 16.6758C2.33757 24.7144 12.3181 31.4911 18.4077 34.0577C44.5619 44.6271 74.0609 43.8196 100.95 36.7317C108.389 33.992 119.86 31.0334 120.423 21.0111C117.735 11.1031 106.159 8.3761 98.0154 5.73621C84.937 2.42434 71.3643 1.88509 57.9631 2.17064Z" fill="#D7E3F4" fill-opacity="0.99216"/>
<path d="M5.90343 30.6602C4.31136 92.6946 5.17685 154.928 4.79828 217.045C5.00071 347.226 4.42617 477.413 6.05588 607.597C9.35982 636.712 33.9266 660.865 61.7312 661.688C81.3847 662.019 100.841 651.788 111.787 634.212C119.401 624.824 120.372 612.296 120.569 600.425C122.591 500.597 121.228 400.725 121.636 300.877V31.6461C118.302 27.0968 112.437 35.145 107.918 35.5357C83.7403 43.9753 56.9959 44.0392 32.116 39.3275C23.1693 37.64 15.0892 32.7126 6.70347 29.8632L5.90323 30.6737L5.90343 30.6602Z" fill="#D7E3F4" fill-opacity="0.99216"/>
<path d="M48.5 669C51.648 672.086 34.5362 660.486 61.0282 660.574C79.754 660.609 98.2918 659.525 108.721 657.66C108.721 644.365 71 660.487 93.5 669C95.4646 654.988 118.106 639.869 118.106 623.906C98.4561 625.123 78.7755 625.936 62.4148 625.929C44.9793 625.923 20.6838 625.089 7.3511 623.753C4.2435 633.869 16.3366 644.654 17.6335 654.837L48.5 669Z" fill="#D725F4" fill-opacity="0.99216"/>
<path d="M38.9427 40.3195C55.4894 45.35 72.7494 43.5482 90.1605 40.3195V666.548H38.9427V40.3195Z" fill="url(#paint0_linear_50_424)"/>
<path d="M9.91827 31.7818C23.5634 37.9208 35.9771 41.4111 49.9262 42.494V629.922L49.0639 660.67L9.91853 642.333L9.91827 31.7818Z" fill="url(#paint1_linear_50_424)"/>
<path d="M55.6155 2.89434C38.3981 4.01573 18.6171 4.53915 5.08487 17.3993C-0.0102105 25.4379 9.97037 32.2146 16.0601 34.7812C42.2143 45.3506 71.7131 44.5431 98.6024 37.4552C106.042 34.7155 117.512 31.7569 118.075 21.7346C115.387 11.8266 103.812 9.09962 95.6676 6.45973C82.5892 3.14786 69.0167 2.60861 55.6155 2.89434Z" fill="url(#paint2_radial_50_424)"/>
<path d="M63.6626 0C30.9346 0 4.34149 9.39215 3.10634 21.142C3.07657 21.4249 3 21.7044 3 21.9899C3 22.3694 3.05394 22.7457 3.10634 23.1205V611.615C3.10634 647.278 30.1196 676 63.6626 676C97.204 676 124.219 647.28 124.219 611.615V23.5727C124.321 23.0508 124.379 22.5213 124.379 21.9899C124.379 9.84579 97.1801 0 63.6626 0ZM63.2373 2.65683C94.4308 2.65683 119.753 11.2135 119.753 21.762C119.753 32.3116 94.4324 40.8672 63.2373 40.8672C32.044 40.8672 6.72161 32.3107 6.72161 21.762C6.72161 11.2126 32.0421 2.65683 63.2373 2.65683ZM6.40346 29.2816C14.6875 37.8484 37.1869 43.9786 63.6626 43.9786C90.0806 43.9786 112.58 37.8755 120.922 29.338V599.926C120.922 633.643 95.3751 660.749 63.6626 660.749C31.9504 660.749 6.40346 633.643 6.40346 599.926V29.2837V29.2816Z" fill="#B3B3B3" fill-opacity="0.99216"/>
<g filter="url(#filter0_f_50_424)">
<path d="M63.1183 674.831C98.5701 665.843 129.115 644.75 121.204 610.451C116.251 642.705 95.1061 668.347 63.3939 668.347C31.6815 668.347 5.85904 633.926 5.85904 600.209C-3.1487 637.907 38.223 674.078 63.1183 674.831Z" fill="white" fill-opacity="0.99216"/>
</g>
<defs>
<filter id="filter0_f_50_424" x="0.8183" y="596.429" width="125.426" height="82.1821" filterUnits="userSpaceOnUse" color-interpolation-filters="sRGB">
<feFlood flood-opacity="0" result="BackgroundImageFix"/>
<feBlend mode="normal" in="SourceGraphic" in2="BackgroundImageFix" result="shape"/>
<feGaussianBlur stdDeviation="1.89011" result="effect1_foregroundBlur_50_424"/>
</filter>
<linearGradient id="paint0_linear_50_424" x1="38.964" y1="353.48" x2="90.1733" y2="353.48" gradientUnits="userSpaceOnUse">
<stop stop-color="white" stop-opacity="0"/>
<stop offset="0.5" stop-color="white" stop-opacity="0.76978"/>
<stop offset="1" stop-color="white" stop-opacity="0"/>
</linearGradient>
<linearGradient id="paint1_linear_50_424" x1="9.94408" y1="340.678" x2="49.946" y2="340.678" gradientUnits="userSpaceOnUse">
<stop stop-color="white" stop-opacity="0"/>
<stop offset="0.5" stop-color="white" stop-opacity="0.76978"/>
<stop offset="1" stop-color="white" stop-opacity="0"/>
</linearGradient>
<radialGradient id="paint2_radial_50_424" cx="0" cy="0" r="1" gradientUnits="userSpaceOnUse" gradientTransform="translate(18.6237 22.7967) rotate(-1.13883) scale(83.6432 34.7424)">
<stop stop-color="white"/>
<stop offset="1" stop-color="white" stop-opacity="0"/>
</radialGradient>
</defs>
</svg>
