<svg width="500" height="500" viewBox="0 0 500 500" fill="none" xmlns="http://www.w3.org/2000/svg">
<rect width="500" height="500" fill="#F5F5F5"/>
<path d="M371.649 339.576C366.301 336.815 359.803 339.068 357.139 344.607C354.472 350.144 356.648 356.871 361.998 359.629C367.346 362.39 373.844 360.138 376.508 354.598C379.172 349.062 376.997 342.336 371.649 339.576Z" fill="#2986F3" fill-opacity="0.41"/>
<path d="M438.42 341.642C433.072 338.882 426.574 341.134 423.91 346.673C421.244 352.21 423.419 358.938 428.769 361.696C434.117 364.456 440.615 362.204 443.279 356.665C445.946 351.128 443.77 344.4 438.42 341.642Z" fill="#2986F3" fill-opacity="0.41"/>
<path d="M397.418 357.121C393.411 355.054 388.545 356.74 386.549 360.888C384.553 365.037 386.181 370.075 390.188 372.141C394.195 374.208 399.061 372.522 401.057 368.374C403.053 364.225 401.425 359.187 397.418 357.121Z" fill="#2986F3" fill-opacity="0.41"/>
<path d="M391.038 332.941C392.013 330.915 391.218 328.452 389.259 327.443C387.303 326.433 384.923 327.257 383.948 329.282C382.973 331.308 383.769 333.771 385.727 334.78C387.684 335.792 390.061 334.966 391.038 332.941Z" fill="#2986F3" fill-opacity="0.41"/>
<path d="M376.112 364.54C374.468 363.692 372.473 364.384 371.653 366.085C370.834 367.786 371.502 369.853 373.145 370.701C374.788 371.549 376.784 370.857 377.604 369.156C378.423 367.455 377.755 365.389 376.112 364.54Z" fill="#2986F3" fill-opacity="0.41"/>
<path d="M420.93 317.811C419.287 316.963 417.291 317.655 416.472 319.356C415.653 321.057 416.321 323.124 417.964 323.972C419.607 324.82 421.603 324.129 422.422 322.427C423.242 320.726 422.573 318.66 420.93 317.811Z" fill="#2986F3" fill-opacity="0.41"/>
<path d="M368.314 317.741C364.949 316.006 360.861 317.421 359.185 320.905C357.509 324.39 358.876 328.622 362.241 330.357C365.606 332.093 369.695 330.677 371.371 327.193C373.047 323.709 371.68 319.476 368.314 317.741Z" fill="#2986F3" fill-opacity="0.41"/>
<path d="M410.252 336.246C406.887 334.51 402.799 335.926 401.123 339.41C399.447 342.894 400.814 347.124 404.179 348.862C407.544 350.597 411.63 349.182 413.308 345.698C414.984 342.214 413.617 337.981 410.252 336.246Z" fill="#2986F3" fill-opacity="0.41"/>
<g clip-path="url(#clip0_0_1)">
<path d="M373.649 272.576C368.301 269.815 361.803 272.068 359.139 277.607C356.472 283.144 358.648 289.871 363.998 292.63C369.346 295.39 375.844 293.138 378.508 287.598C381.172 282.062 378.997 275.336 373.649 272.576Z" fill="#2986F3" fill-opacity="0.41"/>
<path d="M440.42 274.642C435.072 271.881 428.574 274.134 425.91 279.673C423.244 285.21 425.419 291.938 430.769 294.696C436.117 297.456 442.615 295.204 445.279 289.665C447.946 284.128 445.77 277.4 440.42 274.642Z" fill="#2986F3" fill-opacity="0.41"/>
<path d="M399.418 290.121C395.411 288.054 390.545 289.74 388.549 293.888C386.553 298.037 388.181 303.075 392.188 305.141C396.195 307.208 401.061 305.522 403.057 301.374C405.053 297.225 403.425 292.187 399.418 290.121Z" fill="#2986F3" fill-opacity="0.41"/>
<path d="M393.038 265.941C394.013 263.915 393.218 261.452 391.259 260.443C389.303 259.433 386.923 260.257 385.948 262.282C384.974 264.308 385.769 266.771 387.727 267.78C389.684 268.792 392.061 267.966 393.038 265.941Z" fill="#2986F3" fill-opacity="0.41"/>
<path d="M378.112 297.54C376.468 296.692 374.473 297.384 373.653 299.085C372.834 300.786 373.502 302.853 375.145 303.701C376.788 304.549 378.784 303.858 379.604 302.156C380.423 300.455 379.755 298.389 378.112 297.54Z" fill="#2986F3" fill-opacity="0.41"/>
<path d="M422.93 250.811C421.287 249.963 419.291 250.655 418.472 252.356C417.652 254.057 418.321 256.124 419.964 256.972C421.607 257.82 423.603 257.129 424.422 255.427C425.242 253.726 424.573 251.66 422.93 250.811Z" fill="#2986F3" fill-opacity="0.41"/>
<path d="M370.314 250.741C366.949 249.006 362.861 250.421 361.185 253.905C359.509 257.39 360.876 261.622 364.241 263.357C367.606 265.093 371.695 263.677 373.371 260.193C375.047 256.709 373.68 252.476 370.314 250.741Z" fill="#2986F3" fill-opacity="0.41"/>
<path d="M412.252 269.246C408.887 267.51 404.799 268.926 403.123 272.41C401.447 275.894 402.814 280.124 406.179 281.862C409.544 283.597 413.63 282.182 415.308 278.698C416.984 275.214 415.617 270.981 412.252 269.246Z" fill="#2986F3" fill-opacity="0.41"/>
</g>
<defs>
<clipPath id="clip0_0_1">
<rect width="89" height="57" fill="white" transform="translate(358 250)"/>
</clipPath>
</defs>
</svg>
