<svg width="500" height="500" viewBox="0 0 500 500" fill="none" xmlns="http://www.w3.org/2000/svg">
<rect width="500" height="500" fill="#F5F5F5"/>
<path d="M391.141 284.529C391.869 282.934 391.275 280.993 389.812 280.198C388.35 279.403 386.572 280.052 385.843 281.647C385.115 283.243 385.709 285.183 387.172 285.978C388.634 286.775 390.411 286.125 391.141 284.529Z" fill="#2986F3" fill-opacity="0.41"/>
<path d="M407.609 377.671C408.337 376.075 407.743 374.135 406.279 373.34C404.818 372.545 403.04 373.193 402.311 374.789C401.583 376.384 402.177 378.325 403.64 379.12C405.102 379.916 406.879 379.266 407.609 377.671Z" fill="#2986F3" fill-opacity="0.41"/>
<path d="M401.609 324.671C402.337 323.075 401.743 321.135 400.279 320.34C398.818 319.545 397.04 320.193 396.311 321.789C395.583 323.384 396.177 325.325 397.64 326.12C399.102 326.916 400.879 326.266 401.609 324.671Z" fill="#2986F3" fill-opacity="0.41"/>
<path d="M388.609 272.671C389.337 271.075 388.743 269.135 387.279 268.34C385.818 267.545 384.04 268.193 383.311 269.789C382.583 271.384 383.177 273.325 384.64 274.12C386.102 274.916 387.879 274.266 388.609 272.671Z" fill="#2986F3" fill-opacity="0.41"/>
<path d="M391.609 371.671C392.337 370.075 391.743 368.135 390.279 367.34C388.818 366.545 387.04 367.193 386.311 368.789C385.583 370.384 386.177 372.325 387.64 373.12C389.102 373.916 390.879 373.266 391.609 371.671Z" fill="#2986F3" fill-opacity="0.41"/>
<path d="M419.609 312.671C420.337 311.075 419.743 309.135 418.279 308.34C416.818 307.545 415.04 308.193 414.311 309.789C413.583 311.384 414.177 313.325 415.64 314.12C417.102 314.916 418.879 314.266 419.609 312.671Z" fill="#2986F3" fill-opacity="0.41"/>
<path d="M407.609 272.671C408.337 271.075 407.743 269.135 406.279 268.34C404.818 267.545 403.04 268.193 402.311 269.789C401.583 271.384 402.177 273.325 403.64 274.12C405.102 274.916 406.879 274.266 407.609 272.671Z" fill="#2986F3" fill-opacity="0.41"/>
<path d="M377.609 371.671C378.337 370.075 377.743 368.135 376.279 367.34C374.818 366.545 373.04 367.193 372.311 368.789C371.583 370.384 372.177 372.325 373.64 373.12C375.102 373.916 376.879 373.266 377.609 371.671Z" fill="#2986F3" fill-opacity="0.41"/>
<path d="M383.609 358.671C384.337 357.075 383.743 355.135 382.279 354.34C380.818 353.545 379.04 354.193 378.311 355.789C377.583 357.384 378.177 359.325 379.64 360.12C381.102 360.916 382.879 360.266 383.609 358.671Z" fill="#2986F3" fill-opacity="0.41"/>
<path d="M419.609 355.671C420.337 354.075 419.743 352.135 418.279 351.34C416.818 350.545 415.04 351.193 414.311 352.789C413.583 354.384 414.177 356.325 415.64 357.12C417.102 357.916 418.879 357.266 419.609 355.671Z" fill="#2986F3" fill-opacity="0.41"/>
<path d="M401.609 358.671C402.337 357.075 401.743 355.135 400.279 354.34C398.818 353.545 397.04 354.193 396.311 355.789C395.583 357.384 396.177 359.325 397.64 360.12C399.102 360.916 400.879 360.266 401.609 358.671Z" fill="#2986F3" fill-opacity="0.41"/>
<path d="M371.609 339.671C372.337 338.075 371.743 336.135 370.279 335.34C368.818 334.545 367.04 335.193 366.311 336.789C365.583 338.384 366.177 340.325 367.64 341.12C369.102 341.916 370.879 341.266 371.609 339.671Z" fill="#2986F3" fill-opacity="0.41"/>
<path d="M416.609 333.671C417.337 332.075 416.743 330.135 415.279 329.34C413.818 328.545 412.04 329.193 411.311 330.789C410.583 332.384 411.177 334.325 412.64 335.12C414.102 335.916 415.879 335.266 416.609 333.671Z" fill="#2986F3" fill-opacity="0.41"/>
<path d="M391.609 336.671C392.337 335.075 391.743 333.135 390.279 332.34C388.818 331.545 387.04 332.193 386.311 333.789C385.583 335.384 386.177 337.325 387.64 338.12C389.102 338.916 390.879 338.266 391.609 336.671Z" fill="#2986F3" fill-opacity="0.41"/>
<path d="M371.609 312.671C372.337 311.075 371.743 309.135 370.279 308.34C368.818 307.545 367.04 308.193 366.311 309.789C365.583 311.384 366.177 313.325 367.64 314.12C369.102 314.916 370.879 314.266 371.609 312.671Z" fill="#2986F3" fill-opacity="0.41"/>
<path d="M374.609 278.671C375.337 277.075 374.743 275.135 373.279 274.34C371.818 273.545 370.04 274.193 369.311 275.789C368.583 277.384 369.177 279.325 370.64 280.12C372.102 280.916 373.879 280.266 374.609 278.671Z" fill="#2986F3" fill-opacity="0.41"/>
<path d="M419.609 296.671C420.337 295.075 419.743 293.135 418.279 292.34C416.818 291.545 415.04 292.193 414.311 293.789C413.583 295.384 414.177 297.325 415.64 298.12C417.102 298.916 418.879 298.266 419.609 296.671Z" fill="#2986F3" fill-opacity="0.41"/>
<path d="M388.609 299.671C389.337 298.075 388.743 296.135 387.279 295.34C385.818 294.545 384.04 295.193 383.311 296.789C382.583 298.384 383.177 300.325 384.64 301.12C386.102 301.916 387.879 301.266 388.609 299.671Z" fill="#2986F3" fill-opacity="0.41"/>
<path d="M407.609 312.671C408.337 311.075 407.743 309.135 406.279 308.34C404.818 307.545 403.04 308.193 402.311 309.789C401.583 311.384 402.177 313.325 403.64 314.12C405.102 314.916 406.879 314.266 407.609 312.671Z" fill="#2986F3" fill-opacity="0.41"/>
<path d="M385.609 318.671C386.337 317.075 385.743 315.135 384.279 314.34C382.818 313.545 381.04 314.193 380.311 315.789C379.583 317.384 380.177 319.325 381.64 320.12C383.102 320.916 384.879 320.266 385.609 318.671Z" fill="#2986F3" fill-opacity="0.41"/>
</svg>
