<svg width="405" height="713" viewBox="0 0 405 713" fill="none" xmlns="http://www.w3.org/2000/svg">
<path d="M296.463 407.929C296.463 407.929 296.365 427.866 296.031 433.292L294.276 434.546L293.834 410.223L281.623 408.078C282.724 406.109 281.952 417.902 280.604 415.999C259.587 402.629 204.152 394.671 165.859 383.398C146.423 378.241 151.426 369.46 149.93 358.466C149.93 352.728 142.387 352.321 142.387 338.12V286.741V274.778C142.393 180.109 142.402 96.1906 142.456 92.9995C143.917 97.4757 171.084 96.8396 171.484 92.9995V271.004V283.417V338.12C171.484 352.24 164.471 352.144 164.471 358.209C163.045 370.792 167.827 372.373 174.783 374.913C186.559 378.943 200.707 380.889 209.651 383.183C218.596 385.477 277.808 397.353 277.808 397.353C281.751 397.148 282.166 407.41 281.445 405.101L296.463 407.929Z" fill="#9D9B00" fill-opacity="0.230769" stroke="#676767" stroke-width="0.2" stroke-linecap="round" stroke-linejoin="round"/>
<g opacity="0.78">
<g filter="url(#filter0_f_91_125)">
<path d="M285.772 432.725L282.482 375.989" stroke="#676767" stroke-width="0.7"/>
<path d="M304.124 433.33L305.904 375.93" stroke="#676767" stroke-width="0.7"/>
</g>
</g>
<path d="M279.593 384.81L309.767 384.795C308.519 387.491 308.732 396.35 308.61 405.331C308.498 413.547 308.562 422.409 309.272 424.35L280.829 424.131C281.93 422.162 282.084 418.03 280.737 416.127C259.72 402.758 204.152 394.671 165.859 383.398C146.423 378.241 151.426 369.46 149.93 358.466C149.93 352.728 142.387 352.321 142.387 338.12V286.741V274.778C142.393 180.109 142.402 12.5914 142.456 9.4004C142.495 6.52705 138.9 6.49859 138.9 4.50241C138.9 2.511 140.981 2.48255 142.387 2.48255H171.484C171.484 2.48255 175.865 2.27391 175.865 4.50241C175.865 6.73567 171.484 6.65507 171.484 9.4004V271.004V283.417V338.12C171.484 352.24 164.471 352.144 164.471 358.209C163.045 370.792 167.827 372.373 174.783 374.913C186.559 378.943 200.706 380.889 209.651 383.183C218.596 385.477 277.808 397.353 277.808 397.353C281.751 397.148 280.314 387.119 279.593 384.81Z" fill="#D6E4ED" fill-opacity="0.247059" stroke="#1A1A18" stroke-linecap="round" stroke-linejoin="round"/>
<path d="M275.211 380.211C275.211 377.609 276.37 375.773 278.944 375.773H309.948C310.718 375.773 313.953 376.365 313.953 379.689C313.953 383.012 312.616 384.805 309.948 384.805H278.944C276.857 384.805 275.211 383.456 275.211 380.211Z" fill="#4D9DDB" fill-opacity="0.215686" stroke="#1A1A18" stroke-linecap="round" stroke-linejoin="round"/>
<path d="M146.579 294.66H167.051" stroke="black" stroke-width="0.35" stroke-linecap="round"/>
<path d="M146.579 337.69H167.051" stroke="black" stroke-width="0.35" stroke-linecap="round"/>
<path d="M152.663 303.266H160.967" stroke="black" stroke-width="0.35" stroke-linecap="round"/>
<path d="M149.329 316.175H164.301" stroke="black" stroke-width="0.35" stroke-linecap="round"/>
<path d="M152.663 298.963H160.967" stroke="black" stroke-width="0.35" stroke-linecap="round"/>
<path d="M152.663 307.569H160.967" stroke="black" stroke-width="0.35" stroke-linecap="round"/>
<path d="M152.663 311.872H160.967" stroke="black" stroke-width="0.35" stroke-linecap="round"/>
<path d="M152.663 324.781H160.967" stroke="black" stroke-width="0.35" stroke-linecap="round"/>
<path d="M152.663 320.478H160.967" stroke="black" stroke-width="0.35" stroke-linecap="round"/>
<path d="M152.663 329.084H160.967" stroke="black" stroke-width="0.35" stroke-linecap="round"/>
<path d="M152.663 333.387H160.967" stroke="black" stroke-width="0.35" stroke-linecap="round"/>
<path d="M146.579 251.631H167.051" stroke="black" stroke-width="0.35" stroke-linecap="round"/>
<path d="M152.663 260.237H160.967" stroke="black" stroke-width="0.35" stroke-linecap="round"/>
<path d="M149.329 273.146H164.301" stroke="black" stroke-width="0.35" stroke-linecap="round"/>
<path d="M152.663 255.934H160.967" stroke="black" stroke-width="0.35" stroke-linecap="round"/>
<path d="M152.663 264.54H160.967" stroke="black" stroke-width="0.35" stroke-linecap="round"/>
<path d="M152.663 268.843H160.967" stroke="black" stroke-width="0.35" stroke-linecap="round"/>
<path d="M152.663 281.752H160.967" stroke="black" stroke-width="0.35" stroke-linecap="round"/>
<path d="M152.663 277.449H160.967" stroke="black" stroke-width="0.35" stroke-linecap="round"/>
<path d="M152.663 286.055H160.967" stroke="black" stroke-width="0.35" stroke-linecap="round"/>
<path d="M152.663 290.357H160.967" stroke="black" stroke-width="0.35" stroke-linecap="round"/>
<path d="M146.579 208.602H167.051" stroke="black" stroke-width="0.35" stroke-linecap="round"/>
<path d="M152.663 217.208H160.967" stroke="black" stroke-width="0.35" stroke-linecap="round"/>
<path d="M149.329 230.116H164.301" stroke="black" stroke-width="0.35" stroke-linecap="round"/>
<path d="M152.663 212.905H160.967" stroke="black" stroke-width="0.35" stroke-linecap="round"/>
<path d="M152.663 221.51H160.967" stroke="black" stroke-width="0.35" stroke-linecap="round"/>
<path d="M152.663 225.813H160.967" stroke="black" stroke-width="0.35" stroke-linecap="round"/>
<path d="M152.663 238.722H160.967" stroke="black" stroke-width="0.35" stroke-linecap="round"/>
<path d="M152.663 234.419H160.967" stroke="black" stroke-width="0.35" stroke-linecap="round"/>
<path d="M152.663 243.025H160.967" stroke="black" stroke-width="0.35" stroke-linecap="round"/>
<path d="M152.663 247.328H160.967" stroke="black" stroke-width="0.35" stroke-linecap="round"/>
<path d="M146.579 165.572H167.051" stroke="black" stroke-width="0.35" stroke-linecap="round"/>
<path d="M152.663 174.178H160.967" stroke="black" stroke-width="0.35" stroke-linecap="round"/>
<path d="M149.329 187.087H164.301" stroke="black" stroke-width="0.35" stroke-linecap="round"/>
<path d="M152.663 169.875H160.967" stroke="black" stroke-width="0.35" stroke-linecap="round"/>
<path d="M152.663 178.481H160.967" stroke="black" stroke-width="0.35" stroke-linecap="round"/>
<path d="M152.663 182.784H160.967" stroke="black" stroke-width="0.35" stroke-linecap="round"/>
<path d="M152.663 195.693H160.967" stroke="black" stroke-width="0.35" stroke-linecap="round"/>
<path d="M152.663 191.39H160.967" stroke="black" stroke-width="0.35" stroke-linecap="round"/>
<path d="M152.663 199.996H160.967" stroke="black" stroke-width="0.35" stroke-linecap="round"/>
<path d="M152.663 204.299H160.967" stroke="black" stroke-width="0.35" stroke-linecap="round"/>
<path d="M146.579 122.543H167.051" stroke="black" stroke-width="0.35" stroke-linecap="round"/>
<path d="M152.663 131.149H160.967" stroke="black" stroke-width="0.35" stroke-linecap="round"/>
<path d="M149.329 144.057H164.301" stroke="black" stroke-width="0.35" stroke-linecap="round"/>
<path d="M152.663 126.846H160.967" stroke="black" stroke-width="0.35" stroke-linecap="round"/>
<path d="M152.663 135.452H160.967" stroke="black" stroke-width="0.35" stroke-linecap="round"/>
<path d="M152.663 139.755H160.967" stroke="black" stroke-width="0.35" stroke-linecap="round"/>
<path d="M152.663 152.663H160.967" stroke="black" stroke-width="0.35" stroke-linecap="round"/>
<path d="M152.663 148.36H160.967" stroke="black" stroke-width="0.35" stroke-linecap="round"/>
<path d="M152.663 156.966H160.967" stroke="black" stroke-width="0.35" stroke-linecap="round"/>
<path d="M152.663 161.269H160.967" stroke="black" stroke-width="0.35" stroke-linecap="round"/>
<path d="M146.579 79.5133H167.051" stroke="black" stroke-width="0.35" stroke-linecap="round"/>
<path d="M152.663 88.1191H160.967" stroke="black" stroke-width="0.35" stroke-linecap="round"/>
<path d="M149.329 101.028H164.301" stroke="black" stroke-width="0.35" stroke-linecap="round"/>
<path d="M152.663 83.8163H160.967" stroke="black" stroke-width="0.35" stroke-linecap="round"/>
<path d="M152.663 92.4221H160.967" stroke="black" stroke-width="0.35" stroke-linecap="round"/>
<path d="M152.663 96.7251H160.967" stroke="black" stroke-width="0.35" stroke-linecap="round"/>
<path d="M152.663 109.634H160.967" stroke="black" stroke-width="0.35" stroke-linecap="round"/>
<path d="M152.663 105.331H160.967" stroke="black" stroke-width="0.35" stroke-linecap="round"/>
<path d="M152.663 113.937H160.967" stroke="black" stroke-width="0.35" stroke-linecap="round"/>
<path d="M152.663 118.24H160.967" stroke="black" stroke-width="0.35" stroke-linecap="round"/>
<path d="M146.579 36.4839H167.051" stroke="black" stroke-width="0.35" stroke-linecap="round"/>
<path d="M152.663 45.0898H160.967" stroke="black" stroke-width="0.35" stroke-linecap="round"/>
<path d="M149.329 57.9987H164.301" stroke="black" stroke-width="0.35" stroke-linecap="round"/>
<path d="M152.663 40.7869H160.967" stroke="black" stroke-width="0.35" stroke-linecap="round"/>
<path d="M152.663 49.3928H160.967" stroke="black" stroke-width="0.35" stroke-linecap="round"/>
<path d="M152.663 53.6957H160.967" stroke="black" stroke-width="0.35" stroke-linecap="round"/>
<path d="M152.663 66.6045H160.967" stroke="black" stroke-width="0.35" stroke-linecap="round"/>
<path d="M152.663 62.3015H160.967" stroke="black" stroke-width="0.35" stroke-linecap="round"/>
<path d="M152.663 70.9075H160.967" stroke="black" stroke-width="0.35" stroke-linecap="round"/>
<path d="M152.663 75.2103H160.967" stroke="black" stroke-width="0.35" stroke-linecap="round"/>
<path d="M303.1 453.683V500.771L297.81 538.452V552.581H292.022V538.452L287.226 500.771V453.683" fill="#D6E4ED" fill-opacity="0.247059"/>
<path d="M303.1 453.683V500.771L297.81 538.452V552.581H292.022V538.452L287.226 500.771V453.683" stroke="#1A1A18" stroke-linecap="round" stroke-linejoin="round"/>
<path d="M277.266 427.726C277.266 425.716 278.346 424.298 280.744 424.298H309.63C310.348 424.298 313.362 424.755 313.362 427.322C313.362 429.89 312.116 431.274 309.63 431.274H280.744C278.8 431.274 277.266 430.233 277.266 427.726Z" fill="#4D9DDB" fill-opacity="0.215686" stroke="#1A1A18" stroke-linecap="round" stroke-linejoin="round"/>
<path d="M283.015 373.526V368.571L244.119 363.028C244.119 363.028 240.57 362.279 240.57 360.468C240.57 358.642 241.967 349.534 241.967 349.534C241.967 349.534 242.676 346.48 246.027 346.072C249.379 345.674 284.812 343.991 293.181 343.991C307.702 343.991 310.209 345.717 314.433 346.442C318.643 347.163 319.431 348.453 319.431 349.889C319.431 351.34 320.198 360.169 320.198 360.169C320.198 360.169 319.535 362.9 316.21 363.782C312.878 364.664 305.217 368.571 305.217 368.571V373.526" fill="#4D9DDB" fill-opacity="0.215686"/>
<path d="M283.015 373.526V368.571L244.119 363.028C244.119 363.028 240.57 362.279 240.57 360.468C240.57 358.642 241.967 349.534 241.967 349.534C241.967 349.534 242.676 346.48 246.027 346.072C249.379 345.674 284.812 343.991 293.181 343.991C307.702 343.991 310.209 345.717 314.433 346.442C318.643 347.163 319.431 348.453 319.431 349.889C319.431 351.34 320.198 360.169 320.198 360.169C320.198 360.169 319.535 362.9 316.21 363.782C312.878 364.664 305.217 368.571 305.217 368.571V373.526" stroke="#1A1A18" stroke-linecap="round" stroke-linejoin="round"/>
<path d="M281.119 375.236L286.235 372.658H301.481L306.82 375.236" fill="#4D9DDB" fill-opacity="0.215686"/>
<path d="M281.119 375.236L286.235 372.658H301.481L306.82 375.236" stroke="#1A1A18" stroke-linecap="round" stroke-linejoin="round"/>
<path d="M280.58 415.731C282.942 413.716 281.43 398.614 278.962 396.851" stroke="#1A1A18" stroke-width="0.7" stroke-linecap="round" stroke-linejoin="round"/>
<path d="M280.72 459.234V432.876H309.601V459.234H280.72Z" fill="#FF0505" stroke="#1A1A18" stroke-linecap="round" stroke-linejoin="round"/>
<path d="M280.72 437.027H309.606Z" fill="#FF0505"/>
<path d="M280.72 437.027H309.606" stroke="#1A1A18" stroke-linecap="round" stroke-linejoin="round"/>
<path d="M286.674 455.236V442.114Z" fill="#FF0505"/>
<path d="M286.674 455.236V442.114" stroke="#1A1A18" stroke-linecap="round" stroke-linejoin="round"/>
<path d="M303.213 455.236V442.114Z" fill="#FF0505"/>
<path d="M303.213 455.236V442.114" stroke="#1A1A18" stroke-linecap="round" stroke-linejoin="round"/>
<path d="M294.938 455.236V442.114Z" fill="#FF0505"/>
<path d="M294.938 455.236V442.114" stroke="#1A1A18" stroke-linecap="round" stroke-linejoin="round"/>
<path d="M226.348 655.637V682.121C226.348 690.679 226.535 690.688 292.472 690.688C355.57 690.688 354.8 690.675 354.8 682.121V655.637H226.348Z" fill="#008080" fill-opacity="0.376471"/>
<path d="M291.86 690.921C354.959 690.921 354.2 690.921 354.2 682.363C354.2 652.354 354.2 788.926 354.2 536.51C354.2 530.808 357.621 527.353 359.149 524.761C359.912 523.467 358.78 522.157 354.2 522.157H225.734C225.734 522.157 222.556 522.157 219.922 524.304C216.866 526.796 215.2 528.939 216.74 530.712C225.734 528.939 225.734 529.521 225.734 533.991C225.734 583.095 225.734 649.74 225.734 682.363C225.734 690.921 225.923 690.921 291.86 690.921Z" fill="#E0E0F6" fill-opacity="0.376471" stroke="black" stroke-width="1.06299" stroke-linejoin="round"/>
<path d="M42.8123 0.783752H50.6248C55.4305 0.783752 59.3262 3.73759 59.3262 7.38131V690.306C59.3262 693.949 55.4305 696.903 50.6248 696.903H42.8123C38.0067 696.903 34.111 693.949 34.111 690.306V7.38131C34.111 3.73759 38.0067 0.783752 42.8123 0.783752Z" fill="url(#paint0_linear_91_125)" stroke="black" stroke-width="1.2" stroke-linecap="round" stroke-linejoin="round"/>
<path d="M19.7932 691.385H397.289C401.102 691.385 404.193 692.508 404.193 693.894V700.263C404.193 701.648 401.102 702.772 397.289 702.772H19.7932C15.9804 702.772 12.8896 701.648 12.8896 700.263V693.894C12.8896 692.508 15.9804 691.385 19.7932 691.385Z" fill="url(#paint1_linear_91_125)" stroke="black" stroke-width="1.2" stroke-linecap="round" stroke-linejoin="round"/>
<path d="M137.376 263.46H49.9079C48.4166 263.46 47.2076 263.62 47.2076 263.817V273.278C47.2076 273.475 48.4166 273.635 49.9079 273.635H137.376C138.867 273.635 140.076 273.475 140.076 273.278V263.817C140.076 263.62 138.867 263.46 137.376 263.46Z" fill="#797979" stroke="black" stroke-linecap="round" stroke-linejoin="bevel"/>
<path d="M67.0829 246.02H29.2486C27.3435 246.02 25.7992 246.176 25.7992 246.369V290.805C25.7992 290.998 27.3435 291.154 29.2486 291.154H67.0829C68.9879 291.154 70.5324 290.998 70.5324 290.805V246.369C70.5324 246.176 68.9879 246.02 67.0829 246.02Z" fill="#797979" stroke="black" stroke-linecap="round" stroke-linejoin="bevel"/>
<path fill-rule="evenodd" clip-rule="evenodd" d="M142.55 250.581L176.623 250.35L176.611 262.937L162.572 263.354L148.054 263.538L148.133 274.22L176.622 274.114V286.717L142.347 286.745L132.567 275.975L132.579 261.15L142.551 250.593L142.55 250.581Z" fill="#797979" stroke="black"/>
<path opacity="0.67577" d="M29.6925 246.869H69.4499C69.6137 246.869 69.7465 246.887 69.7465 246.91V290.264C69.7465 290.287 69.6137 290.305 69.4499 290.305H29.6925C29.5287 290.305 29.3959 290.287 29.3959 290.264V246.91C29.3959 246.887 29.5287 246.869 29.6925 246.869Z" fill="url(#paint2_linear_91_125)"/>
<path d="M24.678 263.079H22.9524C21.4946 263.079 20.3129 264.226 20.3129 265.641V270.595C20.3129 272.011 21.4946 273.158 22.9524 273.158H24.678C26.1358 273.158 27.3176 272.011 27.3176 270.595V265.641C27.3176 264.226 26.1358 263.079 24.678 263.079Z" fill="#797979" stroke="black" stroke-linecap="round" stroke-linejoin="bevel"/>
<path d="M17.9342 250.179H3.58154C2.1237 250.179 0.941895 252.142 0.941895 254.563V282.817C0.941895 285.238 2.1237 287.201 3.58154 287.201H17.9342C19.3921 287.201 20.5739 285.238 20.5739 282.817V254.563C20.5739 252.142 19.3921 250.179 17.9342 250.179Z" fill="#E0D2FF" stroke="black" stroke-width="1.4" stroke-linecap="round" stroke-linejoin="bevel"/>
<path d="M1.17236 255.127H19.7287" stroke="black" stroke-width="1.4"/>
<path d="M1.63635 260.257H20.1927" stroke="black" stroke-width="1.4"/>
<path d="M1.93774 271.618H20.4941" stroke="black" stroke-width="1.4"/>
<path d="M1.93774 277.445H20.4941" stroke="black" stroke-width="1.4"/>
<path d="M1.72913 265.645H20.2855" stroke="black" stroke-width="1.4"/>
<path d="M1.72913 282.796H20.2855" stroke="black" stroke-width="1.4"/>
<defs>
<filter id="filter0_f_91_125" x="281.528" y="375.315" width="25.331" height="58.6307" filterUnits="userSpaceOnUse" color-interpolation-filters="sRGB">
<feFlood flood-opacity="0" result="BackgroundImageFix"/>
<feBlend mode="normal" in="SourceGraphic" in2="BackgroundImageFix" result="shape"/>
<feGaussianBlur stdDeviation="0.302325" result="effect1_foregroundBlur_91_125"/>
</filter>
<linearGradient id="paint0_linear_91_125" x1="60.459" y1="348.866" x2="32.9742" y2="348.866" gradientUnits="userSpaceOnUse">
<stop stop-color="#4A4A4A"/>
<stop offset="0.26613" stop-color="#4A4A4A"/>
<stop offset="1" stop-color="white"/>
</linearGradient>
<linearGradient id="paint1_linear_91_125" x1="426.953" y1="697.767" x2="426.953" y2="708.622" gradientUnits="userSpaceOnUse">
<stop stop-color="#4A4A4A"/>
<stop offset="0.175" stop-color="#4A4A4A" stop-opacity="0.24706"/>
<stop offset="0.39656" stop-color="#4A4A4A" stop-opacity="0.49804"/>
<stop offset="1" stop-color="#4A4A4A" stop-opacity="0"/>
</linearGradient>
<linearGradient id="paint2_linear_91_125" x1="70.1378" y1="268.485" x2="28.9936" y2="268.485" gradientUnits="userSpaceOnUse">
<stop/>
<stop offset="1" stop-opacity="0"/>
</linearGradient>
</defs>
</svg>
